<?xml version="1.0" encoding="UTF-8"?>
<!DOCTYPE svg PUBLIC "-//W3C//DTD SVG 1.1//EN" "http://www.w3.org/Graphics/SVG/1.1/DTD/svg11.dtd">
<!-- Creator: CorelDRAW -->
<svg xmlns="http://www.w3.org/2000/svg" xml:space="preserve" width="148.513mm" height="22.0622mm" version="1.1" style="shape-rendering:geometricPrecision; text-rendering:geometricPrecision; image-rendering:optimizeQuality; fill-rule:evenodd; clip-rule:evenodd"
viewBox="0 0 11941.39 1773.94"
 xmlns:xlink="http://www.w3.org/1999/xlink"
 xmlns:xodm="http://www.corel.com/coreldraw/odm/2003">
 <defs>
  <style type="text/css">
   <![CDATA[
    .fil4 {fill:url(#id0);fill-rule:nonzero}
    .fil13 {fill:url(#id1);fill-rule:nonzero}
    .fil11 {fill:url(#id2);fill-rule:nonzero}
    .fil12 {fill:url(#id3);fill-rule:nonzero}
    .fil2 {fill:url(#id4);fill-rule:nonzero}
    .fil5 {fill:url(#id5);fill-rule:nonzero}
    .fil1 {fill:url(#id6);fill-rule:nonzero}
    .fil8 {fill:url(#id7);fill-rule:nonzero}
    .fil6 {fill:url(#id8);fill-rule:nonzero}
    .fil14 {fill:url(#id9);fill-rule:nonzero}
    .fil3 {fill:url(#id10);fill-rule:nonzero}
    .fil15 {fill:url(#id11);fill-rule:nonzero}
    .fil9 {fill:url(#id12);fill-rule:nonzero}
    .fil7 {fill:url(#id13);fill-rule:nonzero}
    .fil0 {fill:url(#id14);fill-rule:nonzero}
    .fil10 {fill:url(#id15);fill-rule:nonzero}
   ]]>
  </style>
  <linearGradient id="id0" gradientUnits="userSpaceOnUse" x1="9049.08" y1="1674.95" x2="9049.11" y2="202.43">
   <stop offset="0" style="stop-opacity:1; stop-color:#173DBA"/>
   <stop offset="1" style="stop-opacity:1; stop-color:#49159B"/>
  </linearGradient>
  <linearGradient id="id1" gradientUnits="userSpaceOnUse" xlink:href="#id0" x1="3001.48" y1="112.11" x2="3001.52" y2="1778.98">
  </linearGradient>
  <linearGradient id="id2" gradientUnits="userSpaceOnUse" xlink:href="#id0" x1="3001.48" y1="112.11" x2="3001.52" y2="1778.98">
  </linearGradient>
  <linearGradient id="id3" gradientUnits="userSpaceOnUse" xlink:href="#id0" x1="3001.48" y1="112.11" x2="3001.52" y2="1778.98">
  </linearGradient>
  <linearGradient id="id4" gradientUnits="userSpaceOnUse" xlink:href="#id0" x1="9049.09" y1="1674.95" x2="9049.13" y2="202.44">
  </linearGradient>
  <linearGradient id="id5" gradientUnits="userSpaceOnUse" xlink:href="#id0" x1="9049.08" y1="1674.95" x2="9049.12" y2="202.44">
  </linearGradient>
  <linearGradient id="id6" gradientUnits="userSpaceOnUse" xlink:href="#id0" x1="9049.08" y1="1674.95" x2="9049.12" y2="202.44">
  </linearGradient>
  <linearGradient id="id7" gradientUnits="userSpaceOnUse" xlink:href="#id0" x1="10676.42" y1="67.5" x2="10578.43" y2="165.48">
  </linearGradient>
  <linearGradient id="id8" gradientUnits="userSpaceOnUse" xlink:href="#id0" x1="9049.08" y1="1674.95" x2="9049.13" y2="202.44">
  </linearGradient>
  <linearGradient id="id9" gradientUnits="userSpaceOnUse" xlink:href="#id0" x1="3001.48" y1="112.12" x2="3001.53" y2="1778.98">
  </linearGradient>
  <linearGradient id="id10" gradientUnits="userSpaceOnUse" xlink:href="#id0" x1="9049.09" y1="1674.95" x2="9049.13" y2="202.44">
  </linearGradient>
  <linearGradient id="id11" gradientUnits="userSpaceOnUse" xlink:href="#id0" x1="3001.48" y1="112.1" x2="3001.52" y2="1778.98">
  </linearGradient>
  <linearGradient id="id12" gradientUnits="userSpaceOnUse" xlink:href="#id0" x1="3001.48" y1="112.11" x2="3001.52" y2="1778.98">
  </linearGradient>
  <linearGradient id="id13" gradientUnits="userSpaceOnUse" xlink:href="#id0" x1="11167.76" y1="-89.8" x2="10993.76" y2="84.22">
  </linearGradient>
  <linearGradient id="id14" gradientUnits="userSpaceOnUse" xlink:href="#id0" x1="10079.7" y1="-18.64" x2="9945.17" y2="115.91">
  </linearGradient>
  <linearGradient id="id15" gradientUnits="userSpaceOnUse" xlink:href="#id0" x1="3001.48" y1="112.11" x2="3001.53" y2="1778.98">
  </linearGradient>
 </defs>
 <g id="Layer_x0020_1">
  <metadata id="CorelCorpID_0Corel-Layer"/>
  <g id="_2266461647264">
   <g>
    <path class="fil0" d="M10268.13 63.78c0,175.94 58.65,234.59 234.59,234.59 -175.95,0 -234.59,58.65 -234.59,234.59 0,-175.95 -58.65,-234.59 -234.59,-234.59 175.94,0 234.59,-58.65 234.59,-234.59z"/>
    <g>
     <path class="fil1" d="M7994.16 185.62c62.73,0 113.33,21.73 151.82,65.22 38.48,43.48 66.3,100.5 83.4,171.07 17.11,70.56 23.88,151.47 20.32,242.7 -3.57,91.24 -14.98,183.91 -34.21,278 -19.25,94.08 -46.34,186.75 -81.27,277.99 -34.93,91.24 -75.56,172.14 -121.89,242.71 -46.33,70.56 -98.01,127.59 -155.03,171.06 -57.02,43.48 -117.61,65.22 -181.76,65.22 -38.49,0 -73.78,-10.69 -105.86,-32.07 -32.07,-21.38 -61.66,-50.25 -88.74,-86.6 -27.08,-36.36 -51.67,-79.12 -73.76,-128.31 -22.1,-49.18 -43.13,-101.56 -63.09,-157.16 -25.66,57.02 -54.53,110.13 -86.61,159.31 -32.07,49.18 -65.93,91.95 -101.58,128.3 -35.63,36.36 -73.76,64.87 -114.39,85.54 -40.64,20.68 -82.33,31 -125.1,31 -51.32,0 -96.94,-18.53 -136.86,-55.59 -39.91,-37.06 -76.26,-85.54 -109.05,-145.41 -32.8,-59.88 -62.01,-128.66 -87.68,-206.36 -25.66,-77.7 -49.89,-157.53 -72.7,-239.5 -22.81,-81.97 -44.19,-162.52 -64.16,-241.64 -19.95,-79.12 -40.63,-150.75 -62.01,-214.9 -21.38,-64.16 -43.48,-116.9 -66.29,-158.25 -22.81,-41.34 -48.48,-65.57 -76.99,-72.7 -11.4,-2.85 -15.68,-8.55 -12.82,-17.11 2.85,-19.95 10.33,-39.55 22.45,-58.8 12.12,-19.25 28.16,-36.35 48.12,-51.32 19.96,-14.96 43.48,-27.44 70.57,-37.42 27.08,-9.98 57.02,-14.96 89.81,-14.96 54.17,0 100.86,20.66 140.07,62.01 39.2,41.34 72.7,95.51 100.5,162.52 27.8,66.99 51.32,143.27 70.57,228.8 19.23,85.54 36.34,173.22 51.32,263.03 14.97,89.81 28.87,177.49 41.7,263.02 12.83,85.53 26.74,161.8 41.7,228.8 14.96,67 31.72,121.18 50.25,162.53 18.53,41.34 41.34,62.01 68.43,62.01 32.79,0 63.43,-13.55 91.94,-40.63 28.51,-27.08 54.18,-63.44 76.99,-109.06 22.81,-45.61 42.41,-98.71 58.8,-159.3 16.39,-60.59 28.87,-123.67 37.42,-189.25 -25.65,-86.95 -49.18,-173.57 -70.56,-259.81 -21.39,-86.24 -43.12,-165.02 -65.23,-236.29 -22.1,-71.28 -45.61,-130.44 -70.56,-177.49 -24.95,-47.05 -52.39,-74.13 -82.33,-81.26 -11.41,-2.85 -15.68,-8.55 -12.83,-17.11 2.85,-19.95 10.34,-39.55 22.46,-58.8 12.11,-19.25 28.15,-36.35 48.12,-51.32 19.95,-14.96 43.48,-27.44 70.56,-37.42 27.08,-9.98 57.02,-14.96 89.81,-14.96l17.1 0c68.43,0 122.24,25.3 161.46,75.91 39.21,50.61 65.93,116.54 80.19,197.8 25.65,69.85 47.05,146.84 64.15,230.94 17.11,84.11 32.79,168.93 47.04,254.46 14.26,85.54 27.45,168.94 39.57,250.19 12.12,81.26 25.3,153.25 39.55,215.98 14.26,62.73 30.66,112.98 49.19,150.75 18.53,37.78 40.63,56.67 66.29,56.67 35.64,0 68.79,-15.68 99.43,-47.05 30.66,-31.36 57.74,-73.07 81.27,-125.09 23.52,-52.04 43.12,-112.27 58.8,-180.7 15.68,-68.43 26.37,-139.35 32.07,-212.77 5.7,-73.41 5.7,-147.19 0,-221.33 -5.71,-74.13 -17.81,-142.91 -36.35,-206.35 -18.53,-63.44 -44.19,-119.4 -76.98,-167.86 -32.79,-48.48 -74.13,-84.11 -124.03,-106.92 -7.13,-2.85 -10.69,-8.56 -10.69,-17.11 2.86,-25.67 10.34,-48.11 22.46,-67.36 12.11,-19.25 27.09,-34.57 44.91,-45.98 17.82,-11.4 37.42,-19.96 58.8,-25.67 21.39,-5.7 42.05,-8.55 62.02,-8.55z"/>
     <path class="fil2" d="M8581.09 356.47c-9.58,24.49 -25.01,43.39 -46.31,56.69 -21.29,13.31 -44.18,19.96 -68.67,19.96 -14.9,0 -30.35,-3.19 -46.31,-9.58 -30.88,-13.84 -52.96,-36.46 -66.27,-67.86 -13.31,-31.41 -13.57,-62.55 -0.8,-93.42 10.64,-24.48 26.08,-43.38 46.31,-56.69 20.22,-13.31 42.58,-19.96 67.07,-19.96 15.97,0 31.94,3.19 47.91,9.58 31.93,12.78 54.29,34.87 67.07,66.27 12.78,31.41 12.78,63.08 0,95.01zm89.42 938.94c6.39,0 9.58,3.19 9.58,9.58 -2.13,33.01 -15.17,59.35 -39.13,79.05 -23.95,19.69 -59.35,29.53 -106.18,29.53 -31.95,0 -57.48,-5.31 -76.65,-15.96 -19.16,-10.65 -33.53,-25.01 -43.11,-43.11 -9.58,-18.09 -15.97,-38.86 -19.16,-62.27 -3.2,-23.43 -4.79,-48.44 -4.79,-75.05l-1.6 0 0 -463.08c0,-37.27 -3.45,-63.34 -10.37,-78.25 -6.92,-14.9 -22.63,-23.41 -47.11,-25.55 -6.38,0 -9.58,-3.19 -9.58,-9.58 2.12,-33 14.9,-59.35 38.32,-79.05 23.41,-19.69 59.08,-29.53 106.99,-29.53 54.29,0 91.82,15.96 112.58,47.91 20.75,31.93 31.13,79.3 31.13,142.11l0 474.26c1.07,35.13 5.06,59.88 11.98,74.26 6.91,14.37 22.62,22.62 47.1,24.75z"/>
     <path class="fil3" d="M8964.19 967.53c0,29.78 12.6,55.85 37.81,78.19 25.2,22.34 56.7,42.96 94.51,61.86 37.81,18.9 79.06,37.23 123.73,54.98 44.68,17.77 85.92,38.39 123.73,61.87 37.81,23.49 69.32,50.41 94.52,80.76 25.21,30.37 37.81,66.74 37.81,109.13 0,41.24 -5.73,79.06 -17.18,113.41 -11.47,34.37 -32.08,64.45 -61.87,90.22 -29.78,25.78 -69.87,45.82 -120.28,60.15 -50.41,14.32 -114.57,21.47 -192.47,21.47 -136.33,0 -235.72,-17.18 -298.16,-51.55 -62.44,-34.37 -93.65,-81.34 -93.65,-140.91 0,-40.1 22.34,-75.32 67.02,-105.69 44.68,-30.36 106.55,-46.68 185.59,-48.98 4.58,-1.14 8.31,0.29 11.17,4.29 2.87,4.01 3.15,8.31 0.86,12.9 -11.46,32.07 -18.32,66.16 -20.62,102.24 -2.28,36.09 0.86,69.31 9.46,99.66 8.6,30.36 22.92,55.57 42.96,75.61 20.05,20.05 46.68,30.07 79.91,30.07 101.96,0 152.94,-66.44 152.94,-199.34 0,-32.08 -12.31,-59.29 -36.95,-81.63 -24.63,-22.34 -55.85,-43.25 -93.66,-62.72 -37.8,-19.48 -78.19,-38.39 -121.15,-56.72 -42.96,-18.32 -83.34,-39.24 -121.16,-62.73 -37.8,-23.49 -69.02,-50.69 -93.65,-81.62 -24.63,-30.94 -36.95,-68.17 -36.95,-111.7l0 -1.72c0,-37.8 7.45,-72.45 22.34,-103.97 14.9,-31.5 37.52,-58.71 67.89,-81.63 30.35,-22.91 68.73,-40.96 115.13,-54.13 46.4,-13.18 100.53,-19.76 162.4,-19.76 67.6,0 124.59,4.87 170.98,14.6 46.4,9.75 83.92,23.21 112.56,40.39 28.64,17.18 48.98,37.81 61,61.87 12.03,24.05 18.04,49.84 18.04,77.33 0,40.1 -19.47,72.45 -58.42,97.09 -38.96,24.64 -97.96,38.09 -177,40.39 -11.46,0 -16.04,-5.73 -13.75,-17.19 8.02,-28.63 12.31,-59.85 12.88,-93.66 0.58,-33.79 -3.43,-65.3 -12.02,-94.51 -8.6,-29.22 -21.48,-53.56 -38.67,-73.03 -17.18,-19.47 -38.96,-29.22 -65.31,-29.22 -24.06,0 -44.39,5.16 -61,15.47 -16.6,10.31 -30.07,24.06 -40.38,41.24 -10.31,17.19 -18.04,36.95 -23.2,59.29 -5.15,22.34 -7.74,44.96 -7.74,67.88z"/>
     <path class="fil4" d="M10938.5 1205.5c59.94,1.71 103.61,13.91 131.01,36.61 27.39,22.69 41.1,49.02 41.1,78.99 0,53.94 -28.25,91.41 -84.76,112.38 -56.52,20.97 -137,31.46 -241.47,31.46 -59.93,0 -110.03,-9.84 -150.27,-29.54 -40.25,-19.69 -72.57,-46.02 -96.98,-78.99 -24.4,-32.96 -41.95,-70.21 -52.66,-111.74 -10.7,-41.53 -16.05,-84.13 -16.05,-127.8 0,-49.66 8.14,-96.12 24.4,-139.35 16.27,-43.24 39.6,-81.14 69.99,-113.67 30.4,-32.54 67.44,-58.22 111.11,-77.06 43.67,-18.84 92.48,-28.25 146.42,-28.25 48.81,0 91.19,6.85 127.15,20.55 35.96,13.7 66.14,31.46 90.55,53.3 24.4,21.83 42.6,46.23 54.59,73.2 11.99,26.98 17.98,53.31 17.98,78.99 0,38.53 -10.7,70.65 -32.11,96.33 -21.4,25.7 -49.45,46.68 -84.13,62.94 -34.68,16.27 -73.85,27.83 -117.52,34.68 -43.67,6.85 -87.34,10.28 -131.01,10.28 -15.41,0 -30.83,-0.43 -46.24,-1.29 -15.41,-0.86 -30.39,-2.14 -44.95,-3.86 2.56,36.82 7.7,71.29 15.41,103.39 7.71,32.11 17.99,60.15 30.83,84.13 12.84,23.98 28.04,42.82 45.6,56.52 17.55,13.7 37.89,20.55 61,20.55 26.54,0 49.23,-7.28 68.07,-21.84 18.84,-14.56 33.39,-33.18 43.67,-55.87 10.28,-22.68 16.27,-47.52 17.99,-74.49 1.7,-26.98 -1.29,-52.88 -9,-77.71 -1.7,-8.56 1.72,-12.84 10.28,-12.84zm-286.42 -88.62c0,8.56 0.22,16.91 0.64,25.05 0.43,8.14 0.64,16.06 0.64,23.76 69.36,0.86 124.16,-8.13 164.4,-26.97 40.24,-18.84 69.58,-42.6 87.99,-71.28 18.41,-28.69 27.61,-60.16 27.61,-94.41 0,-34.25 -5.78,-65.93 -17.34,-95.05 -11.56,-29.12 -26.76,-53.3 -45.6,-72.57 -18.83,-19.27 -38.1,-28.9 -57.8,-28.9 -22.26,0 -43.03,9.42 -62.29,28.25 -19.27,18.84 -36.17,43.89 -50.74,75.14 -14.55,31.25 -26.12,67.43 -34.67,108.52 -8.57,41.1 -12.85,83.92 -12.85,128.44z"/>
     <path class="fil5" d="M11429.29 967.53c0,29.78 12.6,55.85 37.81,78.19 25.2,22.34 56.71,42.96 94.52,61.86 37.81,18.9 79.05,37.23 123.73,54.98 44.67,17.77 85.92,38.39 123.73,61.87 37.81,23.49 69.31,50.41 94.51,80.76 25.21,30.37 37.81,66.74 37.81,109.13 0,41.24 -5.73,79.06 -17.18,113.41 -11.46,34.37 -32.07,64.45 -61.86,90.22 -29.78,25.78 -69.88,45.82 -120.29,60.15 -50.41,14.32 -114.56,21.47 -192.47,21.47 -136.33,0 -235.71,-17.18 -298.16,-51.55 -62.44,-34.37 -93.66,-81.34 -93.66,-140.91 0,-40.1 22.34,-75.32 67.03,-105.69 44.67,-30.36 106.55,-46.68 185.59,-48.98 4.58,-1.14 8.31,0.29 11.17,4.29 2.87,4.01 3.15,8.31 0.87,12.9 -11.46,32.07 -18.33,66.16 -20.62,102.24 -2.29,36.09 0.85,69.31 9.46,99.66 8.59,30.36 22.91,55.57 42.95,75.61 20.05,20.05 46.68,30.07 79.91,30.07 101.96,0 152.95,-66.44 152.95,-199.34 0,-32.08 -12.32,-59.29 -36.95,-81.63 -24.62,-22.34 -55.84,-43.25 -93.66,-62.72 -37.8,-19.48 -78.18,-38.39 -121.15,-56.72 -42.95,-18.32 -83.34,-39.24 -121.15,-62.73 -37.8,-23.49 -69.02,-50.69 -93.66,-81.62 -24.63,-30.94 -36.95,-68.17 -36.95,-111.7l0 -1.72c0,-37.8 7.45,-72.45 22.34,-103.97 14.89,-31.5 37.52,-58.71 67.88,-81.63 30.35,-22.91 68.74,-40.96 115.13,-54.13 46.4,-13.18 100.54,-19.76 162.4,-19.76 67.6,0 124.6,4.87 170.98,14.6 46.4,9.75 83.93,23.21 112.56,40.39 28.64,17.18 48.98,37.81 61,61.87 12.04,24.05 18.05,49.84 18.05,77.33 0,40.1 -19.48,72.45 -58.43,97.09 -38.96,24.64 -97.95,38.09 -177,40.39 -11.46,0 -16.04,-5.73 -13.74,-17.19 8.02,-28.63 12.3,-59.85 12.88,-93.66 0.57,-33.79 -3.43,-65.3 -12.03,-94.51 -8.59,-29.22 -21.48,-53.56 -38.67,-73.03 -17.18,-19.47 -38.95,-29.22 -65.3,-29.22 -24.07,0 -44.4,5.16 -61,15.47 -16.61,10.31 -30.07,24.06 -40.39,41.24 -10.31,17.19 -18.04,36.95 -23.2,59.29 -5.15,22.34 -7.74,44.96 -7.74,67.88z"/>
     <path class="fil6" d="M10446.61 1562.28c6.19,0 9.28,3.71 9.28,11.13 -2.47,38.35 -17.31,68.96 -44.53,91.86 -27.21,22.88 -68.04,34.32 -122.47,34.32 -63.09,0 -107,-18.86 -131.74,-56.59 -24.74,-37.73 -37.12,-92.47 -37.12,-164.21l0 -436.05c0,-55.66 -6.8,-97.1 -20.42,-124.32 -13.6,-27.21 -30.92,-40.81 -51.95,-40.81 -22.26,0 -47.31,16.7 -75.14,50.1 -27.84,33.4 -53.51,83.81 -77.01,151.22 -23.51,67.42 -43.31,152.16 -59.38,254.21 -16.08,102.05 -24.12,221.12 -24.12,357.18l-165.15 0c-25.98,0 -48.56,-9.27 -67.73,-27.83 -19.18,-18.56 -28.75,-41.44 -28.75,-68.65l0 -1220.94c0,-42.06 -4.03,-71.44 -12.06,-88.14 -8.05,-16.69 -26.29,-25.67 -54.75,-26.9 -7.41,-2.47 -11.13,-6.79 -11.13,-12.99 0,-32.17 14.22,-61.24 42.68,-87.21 28.45,-25.98 70.5,-38.97 126.17,-38.97 63.09,0 107.31,17.63 132.67,52.88 25.36,35.26 36.8,91.85 34.33,169.78l-40.81 1124.45c-1.25,9.9 2.47,14.84 11.12,14.84 8.67,0 13.61,-3.09 14.84,-9.28 9.9,-122.46 26.91,-232.56 51.03,-330.28 24.13,-97.73 53.2,-180.91 87.22,-249.57 34.02,-68.65 71.44,-121.22 112.26,-157.72 40.81,-36.49 82.26,-54.73 124.32,-54.73 39.58,0 72.98,8.97 100.19,26.9 27.23,17.93 48.86,42.67 64.95,74.22 16.08,31.54 27.52,69.58 34.32,114.11 6.81,44.53 10.21,94.01 10.21,148.44l0 398.94c0,43.31 4.33,73.6 12.99,90.92 8.67,17.32 27.22,27.21 55.67,29.69z"/>
    </g>
    <path class="fil7" d="M11411.48 16.79c0,227.57 75.86,303.42 303.42,303.42 -227.57,0 -303.42,75.86 -303.42,303.42 0,-227.57 -75.86,-303.42 -303.42,-303.42 227.57,0 303.42,-75.86 303.42,-303.42z"/>
    <path class="fil8" d="M10813.65 127.52c0,128.14 42.71,170.85 170.85,170.85 -128.14,0 -170.85,42.71 -170.85,170.85 0,-128.14 -42.71,-170.85 -170.85,-170.85 128.14,0 170.85,-42.71 170.85,-170.85z"/>
   </g>
   <g>
    <path class="fil9" d="M1069.58 1202.4c126.49,4.74 219.77,28.85 279.85,72.33 60.07,43.48 90.11,108.69 90.11,195.66 0,42.68 -13.83,82.22 -41.51,118.58 -27.66,36.36 -68.77,68.37 -123.32,96.05 -54.54,27.68 -122.13,49.41 -202.76,65.22 -80.65,15.82 -174.72,23.71 -282.23,23.71 -112.26,0 -216.6,-17.39 -313.05,-52.17 -96.45,-34.79 -179.85,-86.95 -250.2,-156.52 -70.36,-69.57 -125.69,-156.93 -166.02,-262.06 -40.31,-105.15 -60.47,-228.07 -60.47,-368.78l0 -2.37c0,-140.72 20.17,-263.64 60.47,-368.78 40.32,-105.13 95.27,-192.49 164.83,-262.05 69.57,-69.57 150.99,-121.75 244.27,-156.53 93.28,-34.78 193.68,-52.18 301.19,-52.18 110.68,0 206.72,10.28 288.15,30.83 81.42,20.56 148.62,47.44 201.58,80.63 52.97,33.21 92.49,69.97 118.58,110.28 26.08,40.32 39.13,80.25 39.13,119.77 0,83.8 -34.78,144.27 -104.35,181.43 -69.57,37.15 -165.23,57.31 -286.95,60.47 -7.91,1.58 -13.44,-1.19 -16.61,-8.31 -3.16,-7.11 -2.36,-14.63 2.38,-22.54 34.78,-39.51 57.71,-88.53 68.77,-147.02 11.06,-58.5 9.09,-115.42 -5.93,-170.76 -15.01,-55.34 -43.07,-102.77 -84.19,-142.3 -41.1,-39.51 -96.43,-59.28 -166,-59.28 -72.74,0 -138.74,20.95 -198.03,62.84 -59.29,41.91 -109.89,99.62 -151.78,173.13 -41.91,73.52 -74.32,158.9 -97.24,256.13 -22.92,97.24 -34.39,201.98 -34.39,314.24 0,110.67 13.04,215.02 39.13,313.05 26.09,98.03 61.66,183.8 106.72,257.32 45.06,73.52 96.83,131.22 155.34,173.13 58.5,41.89 120.96,62.84 187.36,62.84 69.55,0 125.69,-19.36 168.38,-58.1 42.69,-38.73 73.12,-85.38 91.3,-139.92 18.19,-54.54 23.72,-110.67 16.6,-168.38 -7.12,-57.71 -24.9,-104.75 -53.37,-141.11 -4.74,-6.33 -5.53,-12.65 -2.36,-18.98 3.16,-6.32 8.69,-9.49 16.6,-9.49z"/>
    <path class="fil10" d="M2208.91 206.64c38.84,0 71.42,10.03 97.73,30.07 26.3,20.04 45.41,45.42 57.31,76.11 11.91,30.69 15.66,64.53 11.27,101.48 -4.38,36.96 -19.1,71.72 -44.15,104.3 -5.02,6.26 -11.91,7.52 -20.67,3.75 -62.64,-46.35 -120.91,-69.53 -174.77,-69.53 -92.72,0 -165.69,66.72 -218.94,200.13 -53.25,133.43 -79.88,325.43 -79.88,576l-174.77 0c-26.31,0 -49.17,-9.4 -68.59,-28.18 -19.43,-18.79 -29.13,-41.98 -29.13,-69.54l0 -670.9c0,-42.6 -4.07,-72.36 -12.21,-89.27 -8.14,-16.92 -26.61,-26.62 -55.44,-29.13 -7.52,0 -11.26,-3.75 -11.26,-11.26 0,-32.57 14.4,-62.03 43.22,-88.33 28.81,-26.31 71.41,-39.46 127.78,-39.46 63.9,0 110.26,19.73 139.07,59.2 28.82,39.47 38.84,95.53 30.06,168.19l-35.7 573.18c0,8.76 4.07,13.15 12.21,13.15 8.15,0 12.85,-3.12 14.1,-9.38 15.04,-260.59 56.38,-459.17 124.04,-595.73 67.65,-136.56 157.22,-204.84 268.73,-204.84z"/>
    <path class="fil11" d="M2984.41 1570.82c7.49,0 11.22,3.74 11.22,11.22 0,32.4 -14.64,61.69 -43.93,87.87 -29.29,26.17 -71.35,39.25 -126.2,39.25 -63.56,0 -109.99,-21.81 -139.28,-65.43 -29.29,-43.61 -38.96,-108.43 -28.99,-194.43l33.66 -465.53c0,-8.72 -4.05,-13.08 -12.16,-13.08 -8.1,0 -12.78,3.73 -14.01,11.22 0,122.15 -10.59,228.72 -31.78,319.7 -21.2,90.99 -50.48,166.71 -87.88,227.16 -37.4,60.44 -81.03,105.63 -130.87,135.54 -49.86,29.91 -104.08,44.87 -162.66,44.87 -41.13,0 -79.14,-10.27 -114.04,-30.84 -34.9,-20.57 -64.82,-50.17 -89.73,-88.81 -24.93,-38.64 -44.57,-85.69 -58.9,-141.15 -14.34,-55.47 -21.51,-118.1 -21.51,-187.9 0,-95.97 12.46,-180.41 37.4,-253.32 24.93,-72.92 57.65,-133.67 98.16,-182.29 40.5,-48.61 86,-85.38 136.48,-110.3 50.48,-24.93 101.88,-37.4 154.24,-37.4 39.88,0 75.72,6.87 107.5,20.57 31.78,13.72 58.89,31.78 81.33,54.23 8.72,-19.95 25.86,-37.4 51.4,-52.35 25.55,-14.96 62,-22.44 109.37,-22.44 56.09,0 98.78,15.28 128.07,45.81 29.29,30.55 43.93,74.47 43.93,131.81l0 598.26c0,42.38 4.37,71.98 13.09,88.81 8.72,16.82 27.42,26.49 56.08,28.98zm-745.95 -375.8c0,137.1 15.26,237.75 45.81,301.95 30.53,64.18 65.74,96.27 105.63,96.27 28.66,0 57.96,-14.96 87.87,-44.87 29.91,-29.91 57.02,-72.91 81.32,-129 24.31,-56.09 43.93,-124.96 58.89,-206.59 14.97,-81.64 21.82,-174.18 20.57,-277.64 0,-28.67 -4.98,-55.78 -14.96,-81.33 -9.97,-25.55 -23.37,-47.66 -40.2,-66.36 -16.83,-18.7 -36.14,-33.66 -57.97,-44.88 -21.81,-11.21 -44.55,-16.83 -68.23,-16.83 -26.16,0 -52.66,8.1 -79.46,24.31 -26.79,16.2 -50.48,42.69 -71.04,79.46 -20.57,36.76 -37.08,85.06 -49.55,144.88 -12.46,59.83 -18.69,133.37 -18.69,220.61z"/>
    <path class="fil12" d="M3330.84 379.93c17.42,-15.1 30.19,-37.45 38.32,-67.07 8.13,-29.61 11.32,-59.23 9.58,-88.84 -1.74,-29.62 -9,-55.75 -21.77,-78.39 -12.78,-22.65 -31.36,-33.97 -55.75,-33.97 -32.52,0 -57.19,10.44 -74.03,31.36 -16.84,20.9 -27.59,47.32 -32.23,79.26 -4.64,31.94 -4.06,66.49 1.74,103.64 5.81,37.16 15.1,72.01 27.88,104.53 12.77,32.52 28.16,59.52 46.17,81 17.99,21.48 36.28,32.81 54.86,33.97l125.43 0c4.65,0 6.97,2.32 6.97,6.97l0 10.44c0,4.65 -2.32,6.97 -6.97,6.97l-127.16 0 0 773.45c-1.16,65.03 -13.07,114.39 -35.71,148.07 -22.64,33.68 -63.01,50.52 -121.08,50.52 -52.26,0 -91.16,-10.74 -116.71,-32.23 -25.55,-21.48 -39.49,-50.22 -41.8,-86.22 0,-6.97 3.48,-10.45 10.44,-10.45 26.72,-2.32 43.84,-11.62 51.4,-27.87 7.54,-16.27 11.32,-44.72 11.32,-85.37l0 -729.9 -54.01 0c-4.65,0 -6.96,-2.32 -6.96,-6.97l0 -10.44c0,-4.65 2.32,-6.97 6.96,-6.97l54.01 0c-34.85,-33.68 -57.49,-76.36 -67.94,-128.04 -10.44,-51.69 -6.68,-101.62 11.33,-149.81 17.99,-48.2 51.39,-89.43 100.15,-123.69 48.78,-34.25 114.98,-51.39 198.6,-51.39 45.29,0 85.07,5.23 119.32,15.67 34.26,10.45 62.72,24.4 85.37,41.81 22.64,17.42 39.77,37.74 51.38,60.97 11.62,23.22 17.43,47.62 17.43,73.16 0,46.45 -14.82,82.17 -44.42,107.13 -29.62,24.97 -66.5,37.45 -110.62,37.45 -36,0 -72.58,-8.71 -109.74,-26.12 -4.65,-2.33 -6.98,-5.81 -6.98,-10.46 0,-4.64 1.74,-8.71 5.23,-12.19z"/>
    <path class="fil13" d="M4142.93 481.43c6.32,0 9.49,3.17 9.49,9.5l0 14.22c0,6.33 -3.17,9.5 -9.49,9.5l-184.99 0 0 934.4c1.58,53.74 7.52,91.3 17.79,112.64 10.27,21.35 33.59,33.59 69.96,36.76 9.49,0 14.22,4.74 14.22,14.23 -3.15,49.01 -22.13,88.14 -56.92,117.39 -34.78,29.24 -87.75,43.87 -158.9,43.87 -80.62,0 -136.35,-24.51 -167.19,-73.52 -30.84,-49.01 -46.25,-120.16 -46.25,-213.44l0 -972.35 -154.66 0c-6.31,0 -9.48,-3.17 -9.48,-9.5l0 -14.22c0,-6.33 3.16,-9.5 9.48,-9.5l157.04 0c4.74,-4.74 7.12,-7.12 7.12,-7.12 31.62,-22.13 54.15,-51.77 67.59,-88.93 13.43,-37.16 17.39,-74.71 11.86,-112.66 -5.53,-37.94 -20.17,-71.92 -43.88,-101.98 -23.72,-30.03 -56.92,-48.21 -99.61,-54.54 -7.9,-1.58 -12.65,-5.53 -14.23,-11.85 -1.58,-6.33 0,-12.66 4.74,-18.98 25.3,-28.46 54.55,-49.8 87.76,-64.04 33.19,-14.23 67.98,-21.35 104.34,-21.35 28.46,0 56.53,4.75 84.19,14.23 27.68,9.5 52.18,23.33 73.53,41.51 21.33,18.18 38.72,41.11 52.17,68.77 13.44,27.68 20.17,59.69 20.17,96.05 0,41.11 -7.52,76.68 -22.53,106.72 -15.03,30.05 -34.79,55.34 -59.3,75.89 -24.5,20.56 -52.96,37.16 -85.37,49.81 -32.41,12.65 -66.01,22.13 -100.8,28.46l422.14 0z"/>
    <path class="fil14" d="M5907.74 1594.81c7.09,0 10.64,3.55 10.64,10.63 0,30.72 -13.89,58.5 -41.65,83.31 -27.77,24.81 -67.65,37.22 -119.64,37.22 -60.26,0 -104.28,-20.68 -132.05,-62.03 -27.76,-41.36 -36.92,-102.81 -27.47,-184.34l31.91 -441.35c0,-8.27 -3.84,-12.41 -11.51,-12.41 -7.69,0 -12.12,3.55 -13.3,10.64 0,115.8 -10.04,216.83 -30.13,303.09 -20.09,86.26 -47.86,158.05 -83.31,215.36 -35.45,57.31 -76.8,100.15 -124.08,128.51 -47.26,28.36 -98.67,42.54 -154.2,42.54 -39,0 -75.04,-9.75 -108.12,-29.24 -33.09,-19.5 -61.45,-47.56 -85.08,-84.19 -23.63,-36.63 -42.25,-81.23 -55.83,-133.82 -13.59,-52.59 -20.38,-111.97 -20.38,-178.13 0,-90.99 11.82,-171.05 35.45,-240.17 23.63,-69.13 54.65,-126.73 93.05,-172.82 38.4,-46.08 81.53,-80.95 129.39,-104.58 47.86,-23.63 96.6,-35.45 146.23,-35.45 34.27,0 64.99,5.32 92.17,15.95 27.18,10.64 50.82,24.23 70.9,40.77 20.09,16.55 37.22,35.75 51.4,57.61 14.18,21.85 25.4,44.01 33.67,66.46l0 -466.16c0,-41.35 -3.84,-70.31 -11.52,-86.85 -7.68,-16.55 -25.11,-25.41 -52.29,-26.59 -7.09,-2.36 -10.63,-6.5 -10.63,-12.41 2.36,-36.63 16.54,-65.88 42.54,-87.74 26,-21.85 64.99,-32.79 116.98,-32.79 61.45,0 103.69,18.02 126.74,54.07 23.04,36.04 34.56,88.91 34.56,158.63l0 1054.63c0,40.18 4.14,68.24 12.41,84.19 8.27,15.95 26,25.11 53.17,27.47zm-710.76 -356.27c0,129.99 14.47,225.4 43.43,286.25 28.95,60.86 62.92,91.29 101.92,91.29 27.18,0 55.24,-14.18 84.19,-42.54 28.95,-28.36 54.95,-69.13 77.99,-122.3 23.04,-53.17 41.66,-118.46 55.83,-195.86 14.18,-77.39 20.68,-165.13 19.5,-263.21 0,-27.18 -4.73,-52.88 -14.18,-77.1 -9.46,-24.23 -22.16,-45.2 -38.11,-62.93 -15.95,-17.72 -34.56,-31.91 -55.83,-42.54 -21.27,-10.64 -43.13,-15.95 -65.58,-15.95 -24.81,0 -49.92,7.68 -75.33,23.04 -25.4,15.37 -47.86,40.48 -67.35,75.33 -19.5,34.86 -35.45,80.65 -47.86,137.37 -12.41,56.72 -18.61,126.44 -18.61,209.15z"/>
    <path class="fil15" d="M4636.36 1303.2c74.81,2.13 129.31,17.36 163.5,45.69 34.2,28.31 51.3,61.17 51.3,98.57 0,67.32 -35.27,114.08 -105.79,140.26 -70.53,26.17 -170.98,39.27 -301.35,39.27 -74.81,0 -137.32,-12.29 -187.55,-36.87 -50.23,-24.58 -90.57,-57.44 -121.02,-98.58 -30.45,-41.14 -52.36,-87.63 -65.72,-139.46 -13.36,-51.83 -20.04,-104.99 -20.04,-159.49 0,-61.99 10.15,-119.96 30.45,-173.92 20.3,-53.97 49.43,-101.26 87.36,-141.86 37.94,-40.61 84.15,-72.66 138.65,-96.17 54.5,-23.51 115.42,-35.26 182.73,-35.26 60.92,0 113.81,8.55 158.69,25.64 44.88,17.1 82.55,39.27 113.01,66.52 30.45,27.25 53.16,57.71 68.12,91.37 14.96,33.66 22.44,66.52 22.44,98.58 0,48.09 -13.36,88.17 -40.07,120.22 -26.71,32.07 -61.72,58.25 -104.99,78.55 -43.28,20.3 -92.17,34.73 -146.67,43.28 -54.51,8.55 -109,12.82 -163.5,12.82 -19.24,0 -38.47,-0.53 -57.71,-1.6 -19.23,-1.07 -37.94,-2.67 -56.1,-4.81 3.21,45.94 9.62,88.96 19.23,129.03 9.62,40.07 22.44,75.08 38.47,104.99 16.03,29.92 35,53.43 56.9,70.53 21.91,17.09 47.3,25.65 76.14,25.65 33.13,0 61.44,-9.09 84.95,-27.26 23.51,-18.16 41.67,-41.41 54.5,-69.72 12.82,-28.32 20.3,-59.31 22.44,-92.97 2.14,-33.66 -1.6,-65.98 -11.22,-96.98 -2.13,-10.68 2.15,-16.03 12.82,-16.03zm-357.45 -110.6c0,10.68 0.27,21.1 0.8,31.25 0.54,10.16 0.8,20.04 0.8,29.65 86.57,1.08 154.95,-10.15 205.18,-33.66 50.22,-23.5 86.82,-53.16 109.8,-88.95 22.96,-35.8 34.45,-75.08 34.45,-117.82 0,-42.74 -7.21,-82.29 -21.64,-118.62 -14.42,-36.34 -33.39,-66.52 -56.9,-90.57 -23.51,-24.04 -47.55,-36.06 -72.13,-36.06 -27.78,0 -53.7,11.76 -77.74,35.27 -24.04,23.51 -45.15,54.76 -63.31,93.77 -18.16,39 -32.6,84.15 -43.27,135.44 -10.69,51.29 -16.03,104.73 -16.03,160.3z"/>
   </g>
  </g>
 </g>
</svg>
